<svg width="172" height="42" viewBox="0 0 172 42" fill="none" xmlns="http://www.w3.org/2000/svg">
<g opacity="0.35">
<path d="M19.2001 41.7744L3.8147e-06 30.6892L3.8147e-06 8.39212L9.59901 14.0605L9.59901 25.1463L19.2001 30.6892L19.2001 41.7744Z" fill="#00D662"/>
<path d="M19.2001 41.7744L3.8147e-06 30.6892L3.8147e-06 8.39212L9.59901 14.0605L9.59901 25.1463L19.2001 30.6892L19.2001 41.7744Z" fill="#00D662"/>
<path d="M19.2001 19.6031L9.59902 14.0602L9.59902 2.97443L19.2001 8.51731L28.8013 2.97443L28.8013 14.0602L19.2001 19.6031Z" fill="#00D662"/>
<path d="M19.2001 19.6031L9.59902 14.0602L9.59902 2.97443L19.2001 8.51731L28.8013 2.97443L28.8013 14.0602L19.2001 19.6031Z" fill="#00D662"/>
<path d="M9.599 14.0602L-4.76837e-06 8.39178L9.599 2.97443L9.599 14.0602Z" fill="#00D662"/>
<path d="M9.599 14.0602L-4.76837e-06 8.39178L9.599 2.97443L9.599 14.0602Z" fill="#00D662"/>
<path d="M19.2001 41.7744L38.4003 30.6892V8.39212L28.8013 14.0605L28.8013 25.1463L19.2001 30.6892L19.2001 41.7744Z" fill="#00D662"/>
<path d="M19.2001 41.7744L38.4003 30.6892V8.39212L28.8013 14.0605L28.8013 25.1463L19.2001 30.6892L19.2001 41.7744Z" fill="#00D662"/>
<path d="M19.1992 19.6031L28.8003 14.0602L28.8003 2.97443L19.1992 8.51731L9.59808 2.97443L9.59808 14.0602L19.1992 19.6031Z" fill="#00D662"/>
<path d="M19.1992 19.6031L28.8003 14.0602L28.8003 2.97443L19.1992 8.51731L9.59808 2.97443L9.59808 14.0602L19.1992 19.6031Z" fill="#00D662"/>
<path d="M28.8004 14.0602L38.3994 8.39178L28.8004 2.97443L28.8004 14.0602Z" fill="#00D662"/>
<path d="M28.8004 14.0602L38.3994 8.39178L28.8004 2.97443L28.8004 14.0602Z" fill="#00D662"/>
<path d="M19.1967 41.8625L28.7953 36.2295L28.7953 24.9635L19.1967 30.5965L9.59808 24.9635L9.59808 36.2295L19.1967 41.8625Z" fill="#00D662"/>
<path d="M19.1967 41.8625L28.7953 36.2295L28.7953 24.9635L19.1967 30.5965L9.59808 24.9635L9.59808 36.2295L19.1967 41.8625Z" fill="#00D662"/>
</g>
<path d="M19.2001 38.8L3.8147e-06 27.7147L3.8147e-06 5.41769L9.59901 11.0861L9.59901 22.1719L19.2001 27.7147L19.2001 38.8Z" fill="#00D662"/>
<path d="M19.2001 38.8L3.8147e-06 27.7147L3.8147e-06 5.41769L9.59901 11.0861L9.59901 22.1719L19.2001 27.7147L19.2001 38.8Z" fill="#00D662"/>
<path d="M19.2001 16.6286L9.59902 11.0858L9.59902 0L19.2001 5.54288L28.8013 0L28.8013 11.0858L19.2001 16.6286Z" fill="#00D662"/>
<path d="M19.2001 16.6286L9.59902 11.0858L9.59902 0L19.2001 5.54288L28.8013 0L28.8013 11.0858L19.2001 16.6286Z" fill="#00D662"/>
<path d="M9.599 11.0858L-4.76837e-06 5.41735L9.599 0L9.599 11.0858Z" fill="#00D662"/>
<path d="M9.599 11.0858L-4.76837e-06 5.41735L9.599 0L9.599 11.0858Z" fill="#00D662"/>
<path d="M19.2001 38.8L38.4003 27.7147V5.41769L28.8013 11.0861L28.8013 22.1719L19.2001 27.7147L19.2001 38.8Z" fill="#00D662"/>
<path d="M19.2001 38.8L38.4003 27.7147V5.41769L28.8013 11.0861L28.8013 22.1719L19.2001 27.7147L19.2001 38.8Z" fill="#00D662"/>
<path d="M19.1992 16.6286L28.8003 11.0858L28.8003 0L19.1992 5.54288L9.59808 0L9.59808 11.0858L19.1992 16.6286Z" fill="#00D662"/>
<path d="M19.1992 16.6286L28.8003 11.0858L28.8003 0L19.1992 5.54288L9.59808 0L9.59808 11.0858L19.1992 16.6286Z" fill="#00D662"/>
<path d="M28.8004 11.0858L38.3994 5.41735L28.8004 0L28.8004 11.0858Z" fill="#00D662"/>
<path d="M28.8004 11.0858L38.3994 5.41735L28.8004 0L28.8004 11.0858Z" fill="#00D662"/>
<path d="M19.1967 38.8881L28.7953 33.2551L28.7953 21.9891L19.1967 27.6221L9.59808 21.9891L9.59808 33.2551L19.1967 38.8881Z" fill="#00D662"/>
<path d="M19.1967 38.8881L28.7953 33.2551L28.7953 21.9891L19.1967 27.6221L9.59808 21.9891L9.59808 33.2551L19.1967 38.8881Z" fill="#00D662"/>
<path d="M61.4321 10.4696H66.2102V28.9915H61.4321V26.8172C60.0094 28.6157 57.9961 29.5284 55.3923 29.5284C52.9227 29.5284 50.8021 28.5888 49.0304 26.683C47.2856 24.8039 46.3998 22.4954 46.3998 19.7574C46.3998 17.0193 47.2856 14.7108 49.0573 12.8049C50.8289 10.9259 52.9496 9.95953 55.4192 9.95953C58.023 9.95953 60.0362 10.8722 61.4589 12.6707L61.4321 10.4696ZM52.6274 23.5154C53.5938 24.4818 54.8018 24.9918 56.305 24.9918C57.7814 24.9918 59.0162 24.5086 59.9825 23.5154C60.9489 22.5491 61.4589 21.2874 61.4589 19.7574C61.4589 18.2273 60.9757 16.9657 59.9825 15.9993C59.0162 15.0329 57.7814 14.5229 56.305 14.5229C54.8286 14.5229 53.5938 15.0061 52.6274 15.9993C51.6611 16.9657 51.1779 18.2273 51.1779 19.7574C51.1779 21.2874 51.6611 22.5222 52.6274 23.5154Z" fill="url(#paint0_radial)"/>
<path d="M91.041 9.95942C93.1616 9.95942 94.8527 10.6573 96.1412 12.0264C97.4028 13.4222 98.0471 15.2744 98.0471 17.5829V28.9914H93.269V17.9051C93.269 16.8045 93.0005 15.9186 92.4637 15.3013C91.9268 14.6839 91.1483 14.3617 90.1551 14.3617C89.0545 14.3617 88.2224 14.7107 87.605 15.4355C86.9876 16.1602 86.6923 17.1803 86.6923 18.5493V28.9645H81.9142V17.8782C81.9142 16.7776 81.6458 15.8918 81.1089 15.2744C80.572 14.657 79.7936 14.3349 78.8004 14.3349C77.7266 14.3349 76.8945 14.6839 76.2502 15.4086C75.6328 16.1334 75.3107 17.1534 75.3107 18.5225V28.9377H70.5594V10.4158H75.3376V12.3753C76.4382 10.711 78.1561 9.90573 80.4915 9.90573C82.7732 9.90573 84.4375 10.7916 85.5381 12.5632C86.7729 10.8452 88.5982 9.95942 91.041 9.95942Z" fill="url(#paint1_radial)"/>
<path d="M112.434 9.95953C114.448 9.95953 116.139 10.6306 117.454 11.9996C118.77 13.3686 119.441 15.2477 119.441 17.6367V29.0183H114.662V18.2273C114.662 16.9925 114.34 16.053 113.669 15.3819C112.998 14.7377 112.112 14.3887 111.012 14.3887C109.777 14.3887 108.784 14.7645 108.059 15.543C107.307 16.3214 106.958 17.4488 106.958 18.9789V28.9915H102.18V10.4696H106.958V12.5365C108.059 10.8185 109.911 9.95953 112.434 9.95953Z" fill="white"/>
<path d="M127.547 21.717C128.192 24.0524 129.937 25.2067 132.782 25.2067C134.607 25.2067 136.003 24.5893 136.943 23.3545L140.808 25.5825C138.983 28.2131 136.298 29.5553 132.728 29.5553C129.668 29.5553 127.199 28.6158 125.346 26.7636C123.494 24.9114 122.555 22.576 122.555 19.7574C122.555 16.9657 123.467 14.6304 125.293 12.7782C127.118 10.926 129.48 9.98645 132.326 9.98645C135.037 9.98645 137.292 10.926 139.063 12.805C140.835 14.684 141.721 16.9926 141.721 19.7843C141.721 20.4017 141.667 21.0459 141.533 21.7439L127.547 21.717ZM127.467 18.0126H136.916C136.647 16.751 136.084 15.8115 135.225 15.1941C134.366 14.5767 133.399 14.2545 132.326 14.2545C131.037 14.2545 129.99 14.5767 129.131 15.2478C128.299 15.892 127.762 16.8315 127.467 18.0126Z" fill="white"/>
<path d="M153.236 18.4957L147.492 10.4964H141.989L150.498 22.3343L153.236 18.4957Z" fill="white"/>
<path d="M153.236 18.4957L147.492 10.4964H141.989L150.498 22.3343L153.236 18.4957Z" fill="url(#paint2_radial)"/>
<path d="M153.236 26.1731L155.276 29.0185H160.779L156.001 22.3345L153.236 26.1731Z" fill="white"/>
<path d="M172 13.2076V12.8049H167.812V6.33569L163.034 13.0197V22.7907C163.034 25.3408 163.705 27.1125 165.047 28.0788C166.39 29.072 168.698 29.3673 172 28.9915V24.6697C171.087 24.7234 170.309 24.7234 169.691 24.6966C169.074 24.6697 168.591 24.4818 168.295 24.1865C167.973 23.8913 167.812 23.4081 167.812 22.7907V17.3952C170.121 17.3952 172 15.5161 172 13.2076Z" fill="white"/>
<path d="M61.4321 19.7574C61.4321 21.2874 60.9489 22.5491 59.9557 23.5154C58.9893 24.4818 57.7545 24.9918 56.2781 24.9918C54.8018 24.9918 53.567 24.5086 52.6006 23.5154C51.6342 22.5491 51.1511 21.2874 51.1511 19.7574C51.1511 18.2273 51.6342 16.9657 52.6006 15.9993C53.567 15.0329 54.7749 14.5229 56.2781 14.5229C57.7545 14.5229 59.0162 15.0598 59.9557 15.9993C60.9757 16.9388 61.4321 18.2005 61.4321 19.7574V12.6707C60.0094 10.8722 57.9961 9.95953 55.3923 9.95953C52.9227 9.95953 50.8021 10.8991 49.0304 12.8049C47.2856 14.684 46.3998 16.9925 46.3998 19.7574C46.3998 22.4954 47.2856 24.8039 49.0573 26.7098C50.8289 28.5888 52.9496 29.5552 55.4192 29.5552C58.023 29.5552 60.0362 28.6425 61.4589 26.844V19.7574H61.4321Z" fill="url(#paint3_radial)"/>
<path d="M91.0402 9.95953C88.5974 9.95953 86.7452 10.8454 85.5104 12.617C84.4367 10.8454 82.7456 9.95953 80.4639 9.95953C78.1285 9.95953 76.4374 10.7917 75.3099 12.4291V18.5763C75.3099 17.2341 75.6321 16.1872 76.2495 15.4624C76.8669 14.7377 77.7258 14.3887 78.7996 14.3887C79.7928 14.3887 80.5444 14.7108 81.1081 15.3282C81.645 15.9456 81.9134 16.8046 81.9134 17.932V29.0183H86.6915V18.6031C86.6915 17.2341 86.9868 16.214 87.6042 15.4893C88.2216 14.7645 89.0538 14.4155 90.1543 14.4155C91.1475 14.4155 91.8992 14.7377 92.4629 15.3551C92.9997 15.9725 93.2682 16.8314 93.2682 17.9589V29.0452H98.0463V17.6367C98.0463 15.3282 97.402 13.4492 96.1404 12.0802C94.8788 10.6575 93.1876 9.95953 91.0402 9.95953Z" fill="url(#paint4_radial)"/>
<path d="M112.435 9.95944C109.912 9.95944 108.087 10.8184 106.906 12.5633V19.0057C106.906 17.4756 107.282 16.3213 108.006 15.5697C108.758 14.7913 109.724 14.4154 110.959 14.4154C112.06 14.4154 112.972 14.7376 113.617 15.4086C114.288 16.0529 114.61 17.0193 114.61 18.254V29.0451H119.388V17.6635C119.388 15.2744 118.717 13.3954 117.401 12.0264C116.14 10.6574 114.449 9.95944 112.435 9.95944Z" fill="url(#paint5_radial)"/>
<path d="M140.782 25.5555L136.916 23.3274C135.977 24.5622 134.581 25.1796 132.756 25.1796C129.91 25.1796 128.165 24.0254 127.521 21.69C127.521 21.69 126.77 29.3672 134.635 29.3672C137.265 28.9646 139.305 27.7029 140.782 25.5555Z" fill="url(#paint6_radial)"/>
<path d="M142.875 35.4877H137.345L159.974 4.00037H165.423L142.875 35.4877Z" fill="white"/>
<path d="M172 24.6699V29.0185C168.725 29.3943 166.39 29.0722 165.047 28.1058C163.705 27.1126 163.034 25.341 163.034 22.8177V22.0124C163.034 19.4891 165.074 17.449 167.598 17.449H167.812V22.7908C167.812 23.4351 167.973 23.8914 168.295 24.1867C168.618 24.482 169.074 24.643 169.691 24.6967C170.336 24.7236 171.087 24.7236 172 24.6699Z" fill="url(#paint7_radial)"/>
<defs>
<radialGradient id="paint0_radial" cx="0" cy="0" r="1" gradientUnits="userSpaceOnUse" gradientTransform="translate(35.2044 3.22552) scale(53.1124)">
<stop stop-color="white"/>
<stop offset="1" stop-color="white"/>
</radialGradient>
<radialGradient id="paint1_radial" cx="0" cy="0" r="1" gradientUnits="userSpaceOnUse" gradientTransform="translate(35.205 3.2254) scale(53.1124)">
<stop stop-color="white"/>
<stop offset="1" stop-color="white"/>
</radialGradient>
<radialGradient id="paint2_radial" cx="0" cy="0" r="1" gradientUnits="userSpaceOnUse" gradientTransform="translate(154.78 22.6667) scale(16.4431)">
<stop stop-color="#4D4D4D"/>
<stop offset="1" stop-color="white" stop-opacity="0"/>
</radialGradient>
<radialGradient id="paint3_radial" cx="0" cy="0" r="1" gradientUnits="userSpaceOnUse" gradientTransform="translate(70.8423 18.8289) scale(22.2049)">
<stop stop-color="#1B1464"/>
<stop offset="1" stop-color="#1B1464" stop-opacity="0"/>
</radialGradient>
<radialGradient id="paint4_radial" cx="0" cy="0" r="1" gradientUnits="userSpaceOnUse" gradientTransform="translate(69.0621 19.8894) scale(20.0345)">
<stop stop-color="#1B1464"/>
<stop offset="1" stop-color="#1B1464" stop-opacity="0"/>
</radialGradient>
<radialGradient id="paint5_radial" cx="0" cy="0" r="1" gradientUnits="userSpaceOnUse" gradientTransform="translate(100.75 15.3951) scale(22.1694)">
<stop stop-color="#4D4D4D"/>
<stop offset="1" stop-color="white" stop-opacity="0"/>
</radialGradient>
<radialGradient id="paint6_radial" cx="0" cy="0" r="1" gradientUnits="userSpaceOnUse" gradientTransform="translate(122.198 30.7208) scale(18.3919)">
<stop stop-color="#4D4D4D"/>
<stop offset="1" stop-color="white" stop-opacity="0"/>
</radialGradient>
<radialGradient id="paint7_radial" cx="0" cy="0" r="1" gradientUnits="userSpaceOnUse" gradientTransform="translate(161.433 12.6938) scale(18.0516)">
<stop stop-color="#4D4D4D"/>
<stop offset="1" stop-color="white" stop-opacity="0"/>
</radialGradient>
</defs>
</svg>
