<svg width="25" height="27" viewBox="0 0 25 27" fill="none" xmlns="http://www.w3.org/2000/svg">
<g opacity="0.35">
<path d="M12.0753 26.2724L9.15527e-05 19.3008L9.15527e-05 5.27783L6.03704 8.84277L6.03704 15.8148L12.0753 19.3008L12.0753 26.2724Z" fill="#00D662"/>
<path d="M12.0753 26.2724L9.15527e-05 19.3008L9.15527e-05 5.27783L6.03704 8.84277L6.03704 15.8148L12.0753 19.3008L12.0753 26.2724Z" fill="#00D662"/>
<path d="M12.0752 12.3286L6.03697 8.84259L6.03697 1.87061L12.0752 5.3566L18.1135 1.87061V8.84259L12.0752 12.3286Z" fill="#00D662"/>
<path d="M12.0752 12.3286L6.03697 8.84259L6.03697 1.87061L12.0752 5.3566L18.1135 1.87061V8.84259L12.0752 12.3286Z" fill="#00D662"/>
<path d="M6.03693 8.84259L-1.90735e-05 5.27765L6.03693 1.87061L6.03693 8.84259Z" fill="#00D662"/>
<path d="M6.03693 8.84259L-1.90735e-05 5.27765L6.03693 1.87061L6.03693 8.84259Z" fill="#00D662"/>
<path d="M12.075 26.2724L24.1502 19.3008V5.27783L18.1132 8.84277V15.8148L12.075 19.3008L12.075 26.2724Z" fill="#00D662"/>
<path d="M12.075 26.2724L24.1502 19.3008V5.27783L18.1132 8.84277V15.8148L12.075 19.3008L12.075 26.2724Z" fill="#00D662"/>
<path d="M12.0751 12.3286L18.1134 8.84259V1.87061L12.0751 5.3566L6.0368 1.87061L6.0368 8.84259L12.0751 12.3286Z" fill="#00D662"/>
<path d="M12.0751 12.3286L18.1134 8.84259V1.87061L12.0751 5.3566L6.0368 1.87061L6.0368 8.84259L12.0751 12.3286Z" fill="#00D662"/>
<path d="M18.1133 8.84259L24.1503 5.27765L18.1133 1.87061V8.84259Z" fill="#00D662"/>
<path d="M18.1133 8.84259L24.1503 5.27765L18.1133 1.87061V8.84259Z" fill="#00D662"/>
<path d="M12.0735 26.3277L18.1102 22.785V15.6997L12.0735 19.2424L6.0368 15.6997L6.0368 22.785L12.0735 26.3277Z" fill="#00D662"/>
<path d="M12.0735 26.3277L18.1102 22.785V15.6997L12.0735 19.2424L6.0368 15.6997L6.0368 22.785L12.0735 26.3277Z" fill="#00D662"/>
</g>
<path d="M12.0753 24.4018L9.15527e-05 17.4301L9.15527e-05 3.40723L6.03704 6.97217L6.03704 13.9442L12.0753 17.4301L12.0753 24.4018Z" fill="#00D662"/>
<path d="M12.0753 24.4018L9.15527e-05 17.4301L9.15527e-05 3.40723L6.03704 6.97217L6.03704 13.9442L12.0753 17.4301L12.0753 24.4018Z" fill="#00D662"/>
<path d="M12.0752 10.458L6.03697 6.97199L6.03697 0L12.0752 3.48599L18.1135 0V6.97199L12.0752 10.458Z" fill="#00D662"/>
<path d="M12.0752 10.458L6.03697 6.97199L6.03697 0L12.0752 3.48599L18.1135 0V6.97199L12.0752 10.458Z" fill="#00D662"/>
<path d="M6.03693 6.97199L-1.90735e-05 3.40705L6.03693 0L6.03693 6.97199Z" fill="#00D662"/>
<path d="M6.03693 6.97199L-1.90735e-05 3.40705L6.03693 0L6.03693 6.97199Z" fill="#00D662"/>
<path d="M12.075 24.4018L24.1502 17.4301V3.40723L18.1132 6.97217V13.9442L12.075 17.4301L12.075 24.4018Z" fill="#00D662"/>
<path d="M12.075 24.4018L24.1502 17.4301V3.40723L18.1132 6.97217V13.9442L12.075 17.4301L12.075 24.4018Z" fill="#00D662"/>
<path d="M12.075 10.458L18.1133 6.97199V0L12.075 3.48599L6.03674 0L6.03674 6.97199L12.075 10.458Z" fill="#00D662"/>
<path d="M12.075 10.458L18.1133 6.97199V0L12.075 3.48599L6.03674 0L6.03674 6.97199L12.075 10.458Z" fill="#00D662"/>
<path d="M18.1133 6.97199L24.1503 3.40705L18.1133 0V6.97199Z" fill="#00D662"/>
<path d="M18.1133 6.97199L24.1503 3.40705L18.1133 0V6.97199Z" fill="#00D662"/>
<path d="M12.0735 24.4571L18.1102 20.9144V13.8291L12.0735 17.3718L6.03674 13.8291L6.03674 20.9144L12.0735 24.4571Z" fill="#00D662"/>
<path d="M12.0735 24.4571L18.1102 20.9144V13.8291L12.0735 17.3718L6.03674 13.8291L6.03674 20.9144L12.0735 24.4571Z" fill="#00D662"/>
</svg>
