<svg width="25" height="26" viewBox="0 0 25 26" fill="none" xmlns="http://www.w3.org/2000/svg">
<path d="M21.7316 15.1602C21.329 15.4372 20.8052 15.4719 20.368 15.2511C19.8658 14.9654 19.5931 14.2987 19.5931 13.3939V10.6104C19.5931 9.27273 19.0649 8.32468 18.1775 8.06494C16.684 7.62771 15.5671 9.45887 15.1385 10.1472L12.4935 14.4286V9.20346C12.4632 8 12.0736 7.27706 11.329 7.06061C10.8398 6.91775 10.1039 6.97403 9.38961 8.06494L3.47619 17.5584C2.68831 16.0563 2.27706 14.381 2.28571 12.684C2.28571 6.96104 6.85714 2.30736 12.4935 2.30736C18.1299 2.30736 22.7143 6.96104 22.7143 12.684V12.7143C22.7143 12.7143 22.7143 12.7359 22.7143 12.7446C22.7706 13.8485 22.4113 14.7316 21.7316 15.1602ZM25 12.684V12.6277C24.9524 5.65801 19.3593 0 12.4935 0C5.62771 0 0 5.68831 0 12.684C0 19.6797 5.60173 25.368 12.4935 25.368C15.6537 25.368 18.6926 24.1558 20.987 21.9827C21.4502 21.5455 21.4762 20.8182 21.0476 20.3507C20.632 19.8918 19.9264 19.8571 19.4632 20.2727L19.4589 20.2771C15.4113 24.1169 9.01732 23.9481 5.17749 19.9004C5.08225 19.8009 4.99134 19.7013 4.90043 19.5974L10.2208 11.039V14.987C10.2208 16.8831 10.9567 17.4978 11.5714 17.6797C12.1861 17.8615 13.1342 17.7359 14.1212 16.1299L17.0649 11.368C17.1558 11.2165 17.2424 11.0823 17.3247 10.9697V13.3896C17.3247 15.1645 18.0346 16.5801 19.2857 17.2814C20.4416 17.9048 21.8442 17.8485 22.9481 17.1342C24.3203 16.2424 25.0693 14.6277 24.9913 12.684H25Z" fill="white"/>
</svg>
