<svg width="25" height="25" viewBox="0 0 25 25" fill="none" xmlns="http://www.w3.org/2000/svg">
<path d="M24.9999 12.4449C25.0108 14.9171 24.2883 17.337 22.9239 19.3987C21.5595 21.4603 19.6144 23.0711 17.3345 24.0273C15.0546 24.9834 12.5424 25.2421 10.1156 24.7705C7.6887 24.2989 5.45619 23.1182 3.70033 21.3778C1.94447 19.6374 0.744127 17.4154 0.251094 14.9928C-0.241938 12.5702 -0.00551853 10.0558 0.930456 7.76761C1.86643 5.47938 3.45992 3.52008 5.50943 2.13748C7.55893 0.75488 9.9724 0.0110748 12.4446 0.000122668V0.000122668C14.0862 -0.0071494 15.713 0.308977 17.2324 0.930451C18.7518 1.55193 20.1338 2.46658 21.2997 3.62218C22.4656 4.77779 23.3924 6.15171 24.0273 7.66551C24.6621 9.17931 24.9926 10.8033 24.9999 12.4449Z" fill="#8DC63F"/>
<path d="M24.0624 12.4494C24.0737 14.7361 23.4065 16.9747 22.1454 18.8822C20.8843 20.7896 19.0859 22.2803 16.9775 23.1655C14.8692 24.0508 12.5456 24.2909 10.3008 23.8556C8.05594 23.4202 5.99063 22.3289 4.36606 20.7197C2.74149 19.1104 1.63065 17.0556 1.17402 14.8149C0.717385 12.5743 0.93548 10.2486 1.80072 8.13198C2.66596 6.01532 4.13948 4.20281 6.0349 2.92366C7.93033 1.64452 10.1625 0.95621 12.4492 0.945791V0.945791C15.5143 0.932304 18.4594 2.13646 20.6371 4.29359C22.8148 6.45071 24.0468 9.38426 24.0624 12.4494V12.4494Z" fill="#F9E988"/>
<path d="M12.7128 1.69036C13.4477 1.55992 14.1998 1.55992 14.9347 1.69036C15.6767 1.808 16.3939 2.0483 17.057 2.40141C17.7164 2.76373 18.2861 3.25558 18.8532 3.71663C19.4202 4.17768 19.9845 4.6496 20.5216 5.1659C21.07 5.67412 21.5485 6.25284 21.9446 6.88692C22.3524 7.51602 22.6867 8.18981 22.941 8.89507C23.4238 10.3135 23.5914 11.8416 23.3504 13.2991H23.2789C23.037 11.8543 22.7091 10.4775 22.1919 9.16772C21.9491 8.50935 21.6635 7.86757 21.3369 7.24652C20.9962 6.62201 20.6206 6.01718 20.2119 5.43493C19.7963 4.84841 19.2871 4.33429 18.7046 3.91319C18.1176 3.49471 17.4428 3.22388 16.7898 2.96663C16.1367 2.70938 15.489 2.4458 14.8079 2.25014C14.1267 2.05449 13.4347 1.90775 12.7119 1.76554L12.7128 1.69036Z" fill="white"/>
<path d="M18.364 8.36878C17.5252 8.12602 16.6556 7.78182 15.7752 7.43399C15.7245 7.21298 15.5288 6.93762 15.133 6.60157C14.5578 6.10247 13.4772 6.11515 12.5433 6.33617C11.5125 6.09341 10.4944 6.00736 9.51705 6.24559C1.52339 8.44758 6.056 13.8199 3.12122 19.2202C3.53879 20.1061 8.03969 25.2746 14.5524 23.8878C14.5524 23.8878 12.325 18.5355 17.3513 15.9666C21.4283 13.8751 24.3739 10.0056 18.364 8.36878Z" fill="#8BC53F"/>
<path d="M19.3513 11.8842C19.3519 11.98 19.324 12.0739 19.2712 12.1539C19.2184 12.2338 19.143 12.2964 19.0547 12.3336C18.9663 12.3707 18.869 12.3809 18.7749 12.3627C18.6808 12.3445 18.5942 12.2989 18.526 12.2315C18.4579 12.1641 18.4112 12.078 18.392 11.9841C18.3728 11.8902 18.3818 11.7927 18.418 11.7039C18.4542 11.6152 18.5159 11.5392 18.5952 11.4855C18.6746 11.4318 18.7682 11.4028 18.864 11.4023C18.9925 11.4018 19.1159 11.4522 19.2072 11.5426C19.2985 11.6329 19.3504 11.7557 19.3513 11.8842Z" fill="white"/>
<path d="M12.5433 6.33256C13.1258 6.37423 15.2317 7.0572 15.7752 7.43039C15.3223 6.11698 13.7979 5.94216 12.5433 6.33256Z" fill="#009345"/>
<path d="M13.0977 9.6541C13.0979 10.0962 12.967 10.5285 12.7215 10.8962C12.476 11.264 12.127 11.5506 11.7185 11.72C11.3101 11.8894 10.8607 11.9338 10.427 11.8477C9.9933 11.7617 9.59488 11.5489 9.28212 11.2364C8.96935 10.9239 8.75627 10.5256 8.66984 10.092C8.58341 9.65841 8.6275 9.2089 8.79653 8.80035C8.96557 8.39179 9.25196 8.04254 9.61948 7.79675C9.98701 7.55096 10.4192 7.41967 10.8613 7.41949V7.41949C11.4539 7.41949 12.0222 7.65477 12.4414 8.07362C12.8606 8.49247 13.0963 9.06061 13.0968 9.65319L13.0977 9.6541Z" fill="white"/>
<path d="M12.4347 9.67409C12.4347 9.98509 12.3424 10.2891 12.1697 10.5477C11.9969 10.8063 11.7513 11.0078 11.464 11.1269C11.1766 11.2459 10.8605 11.277 10.5554 11.2163C10.2504 11.1557 9.97021 11.0059 9.7503 10.786C9.53039 10.5661 9.38062 10.2859 9.31995 9.98086C9.25928 9.67583 9.29042 9.35966 9.40943 9.07233C9.52845 8.785 9.72999 8.53942 9.98858 8.36663C10.2472 8.19385 10.5512 8.10162 10.8622 8.10162C11.2792 8.10162 11.6792 8.26729 11.9741 8.56219C12.269 8.85708 12.4347 9.25705 12.4347 9.67409Z" fill="#58595B"/>
<path d="M21.162 12.8698C19.3504 14.146 17.2907 15.1143 14.3686 15.1143C13.0008 15.1143 12.7236 13.665 11.8196 14.3734C11.3532 14.7411 9.70822 15.5636 8.40297 15.5011C7.09771 15.4386 4.98177 14.6741 4.39209 11.887C4.1584 14.6741 4.03883 16.7257 2.98901 19.0781C5.07235 22.4141 10.0397 24.9875 14.5488 23.8788C14.0678 20.4957 17.0289 17.1823 18.6901 15.4893C19.3242 14.8471 20.5289 13.7991 21.162 12.8707V12.8698Z" fill="#8BC53F"/>
<path d="M21.0914 12.9531C20.5289 13.4657 19.8595 13.8453 19.1783 14.1804C18.4888 14.5075 17.77 14.7692 17.0316 14.9621C16.2925 15.1532 15.5216 15.2973 14.7409 15.2266C13.9601 15.156 13.162 14.8906 12.6448 14.3054L12.6693 14.2773C13.3033 14.6886 14.0352 14.8335 14.7635 14.8543C15.5017 14.877 16.24 14.8162 16.9646 14.6732C17.6965 14.5198 18.4124 14.2984 19.1032 14.0119C19.7943 13.7266 20.4782 13.396 21.0669 12.925L21.0914 12.9531Z" fill="#58595B"/>
</svg>
