<svg width="26" height="26" viewBox="0 0 26 26" fill="none" xmlns="http://www.w3.org/2000/svg">
<path d="M12.875 25.375C19.7786 25.375 25.375 19.7786 25.375 12.875C25.375 5.97144 19.7786 0.375 12.875 0.375C5.97144 0.375 0.375 5.97144 0.375 12.875C0.375 19.7786 5.97144 25.375 12.875 25.375Z" fill="url(#paint0_linear)"/>
<path d="M19.1131 7.70426C19.2244 6.98511 18.5406 6.41743 17.9012 6.69823L5.16509 12.29C4.70652 12.4913 4.74007 13.186 5.21567 13.3374L7.84218 14.1738C8.34345 14.3335 8.88626 14.2509 9.32403 13.9485L15.2456 9.85738C15.4242 9.73399 15.6188 9.98791 15.4663 10.1452L11.2038 14.5399C10.7903 14.9662 10.8723 15.6885 11.3697 16.0004L16.142 18.9931C16.6773 19.3288 17.3659 18.9916 17.466 18.3448L19.1131 7.70426Z" fill="white"/>
<defs>
<linearGradient id="paint0_linear" x1="12.875" y1="0.375" x2="12.875" y2="25.375" gradientUnits="userSpaceOnUse">
<stop stop-color="#37BBFE"/>
<stop offset="1" stop-color="#007DBB"/>
</linearGradient>
</defs>
</svg>
