<svg width="26" height="21" viewBox="0 0 26 21" fill="none" xmlns="http://www.w3.org/2000/svg">
<path d="M22.5421 5.20802C22.5574 5.42842 22.5574 5.64881 22.5574 5.87123C22.5574 12.6486 17.3979 20.465 7.96364 20.465V20.4609C5.17672 20.465 2.44769 19.6667 0.101562 18.1615C0.506803 18.2103 0.914075 18.2346 1.32236 18.2356C3.63193 18.2377 5.87548 17.4627 7.69246 16.0358C5.49766 15.9941 3.57302 14.5631 2.90067 12.4739C3.66951 12.6222 4.46171 12.5917 5.21633 12.3856C2.82348 11.9021 1.10197 9.79973 1.10197 7.35813C1.10197 7.33579 1.10197 7.31446 1.10197 7.29313C1.81495 7.69025 2.61324 7.91064 3.42982 7.93502C1.17611 6.42882 0.481412 3.43065 1.84237 1.08655C4.44647 4.2909 8.28864 6.2389 12.4132 6.44507C11.9998 4.66364 12.5645 2.79689 13.897 1.5446C15.9628 -0.397301 19.2119 -0.297768 21.1538 1.76703C22.3025 1.54054 23.4034 1.11905 24.4109 0.521854C24.028 1.70914 23.2267 2.71767 22.1562 3.35854C23.1729 3.23869 24.1662 2.9665 25.1016 2.5511C24.413 3.583 23.5456 4.48184 22.5421 5.20802Z" fill="#1D9BF0"/>
</svg>
